<?xml version="1.0" encoding="UTF-8"?>
<svg width="225px" height="50px" viewBox="0 0 225 50" version="1.1" xmlns="http://www.w3.org/2000/svg" xmlns:xlink="http://www.w3.org/1999/xlink">
    <title>编组 8</title>
    <g id="页面-1" stroke="none" stroke-width="1" fill="none" fill-rule="evenodd">
        <g id="Apple-TV备份-43" transform="translate(-255.000000, -9.000000)">
            <g id="编组-8" transform="translate(255.000000, 9.000000)">
                <g id="编组-4">
                    <rect id="矩形备份-5" fill="#2584F7" x="0" y="0" width="50.0792602" height="50" rx="5.08235294"></rect>
                    <path d="M31.5832819,8.23529412 L37.8323497,14.4744716 L31.5832819,20.7136491 L31.5825231,16.7642941 L19.8898079,16.7647059 C18.2132259,16.7647059 16.8540877,18.121693 16.8540877,19.7956215 C16.8540877,21.4524691 18.1856299,22.7988106 19.8385843,22.8261144 L19.8898079,22.8265372 L30.3475358,22.8265372 C34.4465974,22.8265372 37.7695434,26.144224 37.7695434,30.236798 C37.7695434,34.2884463 34.512724,37.5806276 30.4702723,37.6460661 L30.3475358,37.6470588 L18.6215231,37.6462941 L18.621591,41.680354 L12.3725231,35.4411765 L18.621591,29.201999 L18.6215231,33.2342941 L30.3475358,33.2352941 C32.0061846,33.2352941 33.3507852,31.8928217 33.3507852,30.236798 C33.3507852,28.5978467 32.0337654,27.266015 30.398733,27.2387288 L19.8898079,27.2383019 C15.7728131,27.2383019 12.4353294,23.9061004 12.4353294,19.7956215 C12.4353294,15.7262475 15.7063972,12.419663 19.7665345,12.3539383 L19.8898079,12.3529412 L31.5825231,12.3522941 L31.5832819,8.23529412 Z" id="形状结合" fill="#FFFFFF" transform="translate(25.102436, 24.957824) scale(-1, 1) rotate(-90.000000) translate(-25.102436, -24.957824) "></path>
                </g>
                <g id="编组-7" transform="translate(54.730515, 2.941176)" fill="#FFFFFF">
                    <text id="r备份-4" font-family="AlibabaPuHuiTi-Bold, Alibaba PuHuiTi" font-size="32.3529412" font-weight="bold">
                        <tspan x="0" y="34">MultiCh </tspan>
                        <tspan x="128.020588" y="34" letter-spacing="-4.97058812"> </tspan>
                        <tspan x="131.364706" y="34"> in</tspan>
                    </text>
                    <path d="M128.409261,34.4117647 C130.639403,34.4117647 132.318727,33.7499418 133.447232,32.4262959 L133.447232,33.8850077 L137.27609,33.8850077 L137.27609,17.8796982 L133.447232,17.8796982 L133.447232,19.3789297 C132.291858,18.0282707 130.585665,17.3529412 128.328654,17.3529412 C126.205989,17.3529412 124.46621,18.1700899 123.109316,19.8043873 C121.752423,21.4386847 121.073976,23.4174002 121.073976,25.7405337 C121.073976,28.0636673 121.738988,30.0896558 123.069013,31.8184994 C124.399037,33.5473429 126.17912,34.4117647 128.409261,34.4117647 Z M129.497463,31.008104 C128.180873,31.008104 127.106106,30.5353733 126.273162,29.589912 C125.440217,28.6444507 125.023745,27.4018443 125.023745,25.8620931 C125.023745,24.3223418 125.4335,23.0864888 126.25301,22.154534 C127.07252,21.2225793 128.133852,20.7566019 129.437007,20.7566019 C130.740163,20.7566019 131.808212,21.2360859 132.641157,22.1950538 C133.474101,23.1540217 133.890574,24.3763681 133.890574,25.8620931 C133.890574,27.4558707 133.487536,28.7119836 132.681461,29.6304317 C131.875385,30.5488799 130.814053,31.008104 129.497463,31.008104 Z" id="a" fill-rule="nonzero"></path>
                </g>
            </g>
        </g>
    </g>
</svg>