<?xml version="1.0" encoding="UTF-8"?>
<svg width="1920px" height="1025px" viewBox="0 0 1920 1025" version="1.1" xmlns="http://www.w3.org/2000/svg" xmlns:xlink="http://www.w3.org/1999/xlink">
    <title>路径 23 + 路径 23备份 3 + 路径 23备份 + 路径 23备份 + 编组 31 蒙版</title>
    <defs>
        <rect id="path-1" x="0" y="0" width="1920" height="1025"></rect>
        <linearGradient x1="50%" y1="0%" x2="50%" y2="100%" id="linearGradient-3">
            <stop stop-color="#2584F7" offset="0%"></stop>
            <stop stop-color="#2584F7" stop-opacity="0" offset="100%"></stop>
        </linearGradient>
        <linearGradient x1="50%" y1="0%" x2="50%" y2="100%" id="linearGradient-4">
            <stop stop-color="#F7931A" offset="0%"></stop>
            <stop stop-color="#F71A1A" stop-opacity="0" offset="100%"></stop>
        </linearGradient>
        <polygon id="path-5" points="0 0 41.8726542 0 41.8726542 37.9596062 0 37.9596062"></polygon>
        <linearGradient x1="50%" y1="0%" x2="50%" y2="98.6663605%" id="linearGradient-7">
            <stop stop-color="#BABABA" offset="0%"></stop>
            <stop stop-color="#52505A" offset="100%"></stop>
        </linearGradient>
        <linearGradient x1="50%" y1="-18.5093164%" x2="50%" y2="132.510201%" id="linearGradient-8">
            <stop stop-color="#000000" stop-opacity="0" offset="0%"></stop>
            <stop stop-color="#757575" offset="100%"></stop>
        </linearGradient>
    </defs>
    <g id="页面-1" stroke="none" stroke-width="1" fill="none" fill-rule="evenodd">
        <g id="Apple-TV备份-43" transform="translate(0.000000, -1080.000000)">
            <g id="路径-23-+-路径-23备份-3-+-路径-23备份-+-路径-23备份-+-编组-31-蒙版" transform="translate(0.000000, 1080.000000)">
                <mask id="mask-2" fill="white">
                    <use xlink:href="#path-1"></use>
                </mask>
                <use id="蒙版" fill="#D8D8D8" opacity="0" xlink:href="#path-1"></use>
                <line x1="1941" y1="650" x2="1583.2379" y2="1008" id="路径-23" stroke="url(#linearGradient-3)" stroke-width="16" stroke-linecap="round" mask="url(#mask-2)"></line>
                <line x1="2041" y1="652" x2="1683.2379" y2="1010" id="路径-23备份-3" stroke="url(#linearGradient-3)" stroke-width="16" mask="url(#mask-2)" transform="translate(1862.237900, 831.365054) scale(-1, -1) translate(-1862.237900, -831.365054) "></line>
                <rect id="矩形" fill="#18171C" mask="url(#mask-2)" x="1671" y="978" width="21" height="47"></rect>
                <line x1="518.372846" y1="133.865054" x2="0.237899825" y2="652" id="路径-23备份" stroke="url(#linearGradient-4)" stroke-width="16" stroke-linecap="round" mask="url(#mask-2)" transform="translate(259.305373, 392.932527) scale(-1, -1) translate(-259.305373, -392.932527) "></line>
                <rect id="矩形" fill="#18171C" mask="url(#mask-2)" x="0" y="587" width="19" height="165"></rect>
                <line x1="259.372846" y1="292.865054" x2="-258.7621" y2="811" id="路径-23备份" stroke="url(#linearGradient-4)" stroke-width="16" stroke-linecap="round" mask="url(#mask-2)"></line>
                <g id="编组-31" mask="url(#mask-2)">
                    <g transform="translate(1497.000000, 199.000000)">
                        <g id="编组-28" opacity="0.600000024" stroke="none" stroke-width="1" fill-rule="evenodd" transform="translate(75.999963, 33.000000)">
                            <g id="编组">
                                <path d="M77.1466487,70.7077135 L88.6261966,77.3367922 L53.1961376,77.352853 L53.1078333,56.8272017 L64.5873812,63.4562804 L97.7616689,44.1713228 C102.44982,41.449024 102.44982,37.0202695 97.7335721,34.2979706 C93.0695041,31.6037781 85.5596321,31.5756718 80.8473981,34.2256972 L51.1129609,51.5151053 C39.4728599,58.2766853 20.5235783,58.2766853 8.83129758,51.5271509 C-2.74859596,44.8378444 -2.93724587,34.0169073 8.36569355,27.2392666 L41.7928524,7.80574704 L30.0391602,0.127281523 L65.5145754,1 L65.6028797,21.5577728 L54.35212,15.0571802 L21.278178,34.2859251 C16.541861,37.0363302 16.5699578,41.5092519 21.3383854,44.259657 C25.8740109,46.8775609 33.126998,46.9980166 37.8914117,44.6170089 L38.5296103,44.2435963 L68.1115221,27.0465375 C79.7235263,20.2970031 98.5724622,20.2970031 110.232632,27.0304767 C121.76436,33.6916769 121.928927,44.4684469 110.678167,51.2179813 L77.1466487,70.7077135 Z" id="Fill-10" fill="#FFFFFF"></path>
                                <path d="M88.6233869,76.4391795 L88.6073316,82.9839392 L53.1772726,83 L53.1973417,76.4552403 L88.6233869,76.4391795 Z M119.003037,38.4032815 L118.98358,44.9388095 C118.98358,45.0231285 118.979566,45.1114626 118.979566,45.1957816 C118.971538,45.3885108 118.9314,45.5732095 118.911331,45.7619234 C118.883234,46.0871538 118.859151,46.4123842 118.802958,46.7335994 L118.782888,46.9102678 L118.782888,46.9102678 C118.74275,47.0949665 118.674515,47.27565 118.626349,47.4603488 C118.546073,47.7655032 118.46981,48.0706577 118.361437,48.3717969 C118.337354,48.4440703 118.329326,48.5123286 118.301229,48.584602 C118.241022,48.7492248 118.14469,48.9098324 118.072441,49.0744552 C117.935971,49.3916552 117.799501,49.70484 117.63092,50.0140096 C117.582754,50.106359 117.554657,50.1946932 117.506491,50.2830274 C117.430228,50.4155286 117.325869,50.5440147 117.241579,50.676516 C117.024832,51.0258375 116.796044,51.3711438 116.539159,51.712435 C116.458882,51.8288755 116.398675,51.945316 116.314384,52.0577413 C116.242135,52.1460755 116.149817,52.2223641 116.077568,52.3106983 C115.656117,52.8246426 115.190513,53.3265414 114.676743,53.8163946 C114.596466,53.8926832 114.540272,53.9770022 114.455982,54.0532908 C114.431899,54.0773819 114.395775,54.101473 114.367678,54.1255642 C114.062627,54.4066275 113.70941,54.6796604 113.368235,54.9526933 C113.135433,55.1414073 112.918686,55.3381516 112.665815,55.5188351 C112.268446,55.8159592 111.826925,56.0930073 111.389417,56.3740706 C111.168657,56.5226326 110.975993,56.6711946 110.743191,56.8117263 L110.699039,56.8363193 L110.699039,56.8363193 L110.654887,56.8639238 L77.1273824,76.353656 L77.1474515,69.8088963 L110.674956,50.3151489 C110.943883,50.1545413 111.172671,49.9818881 111.429556,49.8172653 C111.859035,49.536202 112.296543,49.2631691 112.685884,48.9740754 C112.942769,48.7893767 113.159516,48.5886172 113.396331,48.3958881 C113.733493,48.1268703 114.082696,47.8578526 114.387747,47.5767893 C114.500134,47.4804247 114.588438,47.3720146 114.692798,47.2716349 C115.206568,46.7817817 115.672172,46.2798829 116.093624,45.7659386 C116.258191,45.5691943 116.41473,45.3684348 116.563242,45.1636601 C116.816113,44.822369 117.044901,44.4810778 117.261648,44.1317563 C117.394104,43.9109208 117.52656,43.6900854 117.650989,43.4732651 C117.815556,43.1560651 117.95604,42.8428803 118.09251,42.5296955 C118.188842,42.2968145 118.297215,42.0599182 118.381506,41.823022 C118.489879,41.525898 118.562128,41.2207435 118.642405,40.9196043 C118.702612,40.6746777 118.774861,40.4337663 118.823027,40.1888397 C118.87922,39.8636093 118.903303,39.5423941 118.9314,39.2171637 C118.947455,39.0351418 118.974214,38.8513353 118.99027,38.6681237 L119.003037,38.4032815 Z M89.7372242,31.3626491 C90.1345931,31.3706794 90.5279483,31.3947706 90.9213034,31.4268921 C91.0898842,31.4429529 91.2544511,31.467044 91.4190181,31.4790896 L91.7200551,31.5152263 L91.7200551,31.5152263 C91.84047,31.531287 91.9689125,31.5393174 92.0893273,31.5593934 C92.4907101,31.615606 92.8880791,31.6838643 93.2814342,31.7641681 C93.3978352,31.7882592 93.5062086,31.8203807 93.6226096,31.848487 C93.7430244,31.8765934 93.8594254,31.9046997 93.9838541,31.9368212 C94.1644763,31.9809883 94.3531263,32.0211402 94.5377623,32.0733377 C94.9150622,32.1777326 95.2763067,32.3142491 95.6375512,32.4467504 L95.7740213,32.4894118 L95.7740213,32.4894118 L95.9104915,32.5350845 L95.9987957,32.5672061 C96.6088975,32.8081175 97.1868888,33.0851656 97.7327694,33.3983504 C100.009845,34.7110087 101.18475,36.4208797 101.2682,38.1460281 L101.272976,38.3530948 L101.252037,44.8832815 L101.24855,44.6912333 C101.168392,42.9696486 99.9897757,41.2596291 97.7127002,39.9431101 C97.1467505,39.6178797 96.5326348,39.3328012 95.8944362,39.0838594 C95.806132,39.0477227 95.7098001,39.0196164 95.6174821,38.9915101 C95.0836429,38.7947657 94.5297347,38.6261278 93.963785,38.4815809 C93.8393563,38.4534746 93.7269691,38.4213531 93.6065543,38.3932467 C92.9844109,38.2527151 92.3462123,38.1402898 91.699986,38.059986 C91.6036541,38.0479404 91.4992946,38.0358948 91.3989489,38.0278645 C90.9627796,37.982359 90.5230425,37.9493452 90.082116,37.9300128 L89.4201317,37.9114239 L89.111067,37.9114239 C88.4287163,37.9154391 87.7423517,37.9475607 87.0680286,38.0158189 C86.9837382,38.0238493 86.8994478,38.03991 86.8151574,38.0519556 C86.2853321,38.1161986 85.7635345,38.2045328 85.2457507,38.3129429 C84.8242988,38.3972619 84.422916,38.5016569 84.0215332,38.6140822 C83.7164823,38.6984012 83.4074175,38.7827202 83.1103943,38.8830999 C82.4380781,39.1173193 81.788061,39.3738454 81.1858939,39.6805613 L80.83054,39.8708367 L51.092089,57.1562296 C49.7956225,57.9110853 48.3787413,58.5535157 46.9177079,59.1357183 C46.5323804,59.2882955 46.1510668,59.4328423 45.7577117,59.5814043 C45.3483012,59.7259512 44.9629737,59.9026195 44.5415218,60.039136 C44.0317657,60.2037588 43.4778574,60.2840626 42.9560598,60.4326246 C41.9686581,60.7096727 40.9772426,60.9666449 39.9577303,61.17945 C39.5884582,61.2557386 39.2512966,61.3842247 38.8780106,61.4484677 C38.0391206,61.5970297 37.1801614,61.6974095 36.3252161,61.8018044 C36.024179,61.8419563 35.7351833,61.898169 35.4341463,61.9262753 C35.3057038,61.9383209 35.1812751,61.9664272 35.0568464,61.9784728 C33.9570576,62.0908981 32.8452272,62.1631715 31.7374107,62.2033234 C31.2918758,62.2193842 30.8463409,62.2073386 30.4048199,62.2073386 C30.1358934,62.2113538 29.8749946,62.215369 29.6060681,62.2113538 C29.2929895,62.2113538 28.979911,62.2233994 28.6668324,62.215369 C27.6794307,62.1912778 26.6960429,62.1390804 25.7206827,62.0587766 C25.3554244,62.0306702 24.9981937,61.9744576 24.640963,61.9383209 C24.3921057,61.9142297 24.1432483,61.8861234 23.8984048,61.8540019 C23.5371603,61.8098348 23.1678881,61.7817285 22.8106575,61.7335462 C21.8072005,61.5889993 20.8197988,61.4203614 19.8444386,61.2196019 C19.5875536,61.1633892 19.3427101,61.0871006 19.0858251,61.0308879 C18.8048572,60.9666449 18.5279031,60.8983867 18.2429213,60.8261132 C17.737179,60.7016424 17.223409,60.5932322 16.7297082,60.4527006 C15.8265969,60.1997436 14.9676377,59.8825436 14.1006509,59.5693588 C13.8598212,59.4770094 13.6029362,59.4127664 13.3621065,59.3164018 C13.2778162,59.2842803 13.1935258,59.2601891 13.1092354,59.2320828 C11.5960223,58.6338195 10.1590719,57.947222 8.81845333,57.1722904 C3.05817399,53.8453563 0.117343186,49.500156 0.00344188189,45.1365785 L3.65873966e-05,44.8456571 L0.0150365874,38.3352815 L0.0195316563,38.5915682 C0.130868124,42.8546652 2.94492174,47.1073004 8.45466707,50.4042319 L8.83450865,50.6275307 C10.2473761,51.4426142 11.7806583,52.1533029 13.3781618,52.7676269 C13.6189915,52.8639915 13.8798903,52.9322497 14.1247338,53.0245991 C15.4573247,53.5064219 16.8380815,53.9280168 18.2589766,54.2773384 C18.5479722,54.3496118 18.8249263,54.4218852 19.1099081,54.4861282 C20.6793148,54.839465 22.284846,55.1124979 23.9144601,55.3092422 C24.1633175,55.3373485 24.4121748,55.36947 24.6610321,55.3935612 C26.2986739,55.5662144 27.9603987,55.6545485 29.6221234,55.6665941 C29.8910499,55.6665941 30.1559625,55.6665941 30.424889,55.6625789 C32.1106967,55.6465182 33.7884768,55.5621992 35.4542154,55.3855308 C35.7552525,55.3493941 36.0442481,55.2971966 36.3412714,55.2570447 C37.5735165,55.1004523 38.7816787,54.8796169 39.9697718,54.6346903 C40.9932979,54.4218852 41.9847134,54.164913 42.9761289,53.8878649 C43.9233923,53.6188472 44.8706557,53.361875 45.7777808,53.0326295 C46.1671221,52.8920978 46.5564634,52.7435358 46.9377771,52.5909586 C48.186651,52.0884862 49.4060355,51.5476647 50.5479052,50.9280378 L51.1121581,50.6114699 L80.8465953,33.3220618 C81.5490152,32.9325883 82.3196702,32.6153883 83.1264496,32.3383402 C83.21074,32.3142491 83.278975,32.2660668 83.3632654,32.2379605 C83.584026,32.1656871 83.816828,32.1335655 84.0416023,32.0693225 C84.446999,31.9568972 84.8443679,31.848487 85.261806,31.7681832 C85.3862347,31.7400769 85.5066495,31.6959098 85.635092,31.6718187 C86.0284472,31.5995453 86.4338438,31.551363 86.8352266,31.5031807 L86.9616621,31.4856143 L86.9616621,31.4856143 L87.0880977,31.4710592 L87.1683743,31.4590136 C87.6139092,31.4148465 88.0594441,31.382725 88.504979,31.3706794 C88.713698,31.3626491 88.9224171,31.3666642 89.1271223,31.3666642 L89.2821564,31.363151 L89.2821564,31.363151 L89.7372242,31.3626491 Z M54.3513172,14.1559538 L65.6020769,20.6565465 L65.5820077,27.197291 L54.3352619,20.7007135 L21.2613199,39.9294584 C20.9723243,40.0940812 20.7555776,40.2868103 20.5067202,40.4674939 C20.2137108,40.6762838 19.8966184,40.8770433 19.6517749,41.0978787 C19.2744751,41.4391699 18.9533688,41.7965218 18.6884562,42.1619041 C18.6402902,42.2301623 18.5961381,42.2984205 18.5559999,42.3666788 C18.3071425,42.7360762 18.1064511,43.1094889 17.9739948,43.4949471 C17.9579395,43.5431294 17.9499118,43.5872965 17.9338565,43.6314636 C17.8311025,43.9623153 17.7591747,44.2957366 17.7345138,44.6317277 L17.7251375,44.8842029 L17.7452066,38.335428 L17.7452066,38.2270179 C17.7532343,37.998152 17.7773172,37.7612558 17.8254832,37.53239 C17.8575938,37.383828 17.9057597,37.2312508 17.9539257,37.0867039 C17.9659672,37.0425368 17.9780086,36.9943545 17.994064,36.9501875 L18.0221607,36.8457925 L18.0221607,36.8457925 C18.110465,36.6088963 18.2188383,36.3800305 18.3472808,36.1511646 C18.4115021,36.0387393 18.4998063,35.926314 18.5680413,35.8179039 C18.6162073,35.7496456 18.6563456,35.6854026 18.7085253,35.6171444 C18.7526774,35.5529013 18.7888019,35.4886583 18.8369678,35.4204001 C19.0025382,35.212614 19.1839131,35.009345 19.384479,34.8088992 L19.5915675,34.6093317 L19.6758579,34.5491038 C19.9166875,34.3322836 20.2297661,34.1315241 20.5187617,33.9267494 C20.7274808,33.7781874 20.9000754,33.6135646 21.1328774,33.4730329 L21.2071332,33.4253525 L21.2071332,33.4253525 L21.281389,33.3806835 L54.3513172,14.1559538 Z M30.0592293,0.127281523 L41.7956621,6.90492224 L41.7796068,13.4496819 L30.0391602,6.67204122 L30.0592293,0.127281523 Z" id="形状结合" fill="#FFFFFF"></path>
                                <g>
                                    <g transform="translate(77.127382, 38.394050)">
                                        <mask id="mask-6" fill="white">
                                            <use xlink:href="#path-5"></use>
                                        </mask>
                                        <g id="Clip-5"></g>
                                    </g>
                                    <g transform="translate(0.015680, 0.000000)" fill="url(#linearGradient-7)" id="Fill-10">
                                        <path d="M77.1309692,69.7077135 L88.610517,76.3367922 L53.180458,76.352853 L53.0921538,55.8272017 L64.5717016,62.4562804 L97.7459894,43.1713228 C102.43414,40.449024 102.43414,36.0202695 97.7178926,33.2979706 C93.0538245,30.6037781 85.5439525,30.5756718 80.8317185,33.2256972 L51.0972813,50.5151053 C39.4571804,57.2766853 20.5078988,57.2766853 8.81561804,50.5271509 C-2.7642755,43.8378444 -2.95292542,33.0169073 8.350014,26.2392666 L41.7771729,6.80574704 L30.0447539,0.02810633 L65.4988959,0 L65.5872001,20.5577728 L54.3364405,14.0571802 L21.2624984,33.2859251 C16.5261815,36.0363302 16.5542783,40.5092519 21.3227058,43.259657 C25.8583314,45.8775609 33.1113184,45.9980166 37.8757322,43.6170089 L38.5139308,43.2435963 L68.0958426,26.0465375 C79.7078467,19.2970031 98.5567826,19.2970031 110.216953,26.0304767 C121.74868,32.6916769 121.913247,43.4684469 110.662488,50.2179813 L77.1309692,69.7077135 Z"></path>
                                    </g>
                                </g>
                            </g>
                        </g>
                        <ellipse id="椭圆形" stroke="url(#linearGradient-8)" stroke-width="2" stroke-linecap="round" cx="136" cy="75" rx="136" ry="75"></ellipse>
                    </g>
                </g>
                <path d="M1920,0 C1420.33388,66.6666667 1010.50081,100 690.500814,100 C370.500814,100 140.333876,66.6666667 0,0 L1920,0 Z" id="矩形" fill="#000000" opacity="0.5" mask="url(#mask-2)"></path>
                <path d="M1920,0 C1420.33388,66.6666667 1010.50081,100 690.500814,100 C370.500814,100 140.333876,66.6666667 0,0 L1920,0 Z" id="矩形" fill="#000000" opacity="0.300000012" mask="url(#mask-2)" transform="translate(960.000000, 50.000000) scale(-1, 1) translate(-960.000000, -50.000000) "></path>
            </g>
        </g>
    </g>
</svg>