<?xml version="1.0" encoding="UTF-8"?>
<svg width="1920px" height="1188px" viewBox="0 0 1920 1188" version="1.1" xmlns="http://www.w3.org/2000/svg" xmlns:xlink="http://www.w3.org/1999/xlink">
    <title>编组 35 + 矩形 + 路径 27 + 路径 27备份 + 编组 蒙版</title>
    <defs>
        <rect id="path-1" x="0" y="0" width="1920" height="1188"></rect>
        <path d="M0,56.0360252 C246.852338,-18.6786751 566.852338,-18.6786751 960,56.0360252 C1353.14766,130.750725 1673.14766,130.750725 1920,56.0360252 L1920,1136.94829 C1630.77246,1068.87935 1310.77246,1068.87935 960,1136.94829 C609.227535,1205.01724 289.227535,1205.01724 0,1136.94829 L0,56.0360252 Z" id="path-3"></path>
        <filter x="-0.1%" y="-0.2%" width="100.2%" height="100.3%" filterUnits="objectBoundingBox" id="filter-4">
            <feGaussianBlur stdDeviation="1.5" in="SourceAlpha" result="shadowBlurInner1"></feGaussianBlur>
            <feOffset dx="0" dy="1" in="shadowBlurInner1" result="shadowOffsetInner1"></feOffset>
            <feComposite in="shadowOffsetInner1" in2="SourceAlpha" operator="arithmetic" k2="-1" k3="1" result="shadowInnerInner1"></feComposite>
            <feColorMatrix values="0 0 0 0 0   0 0 0 0 0   0 0 0 0 0  0 0 0 0.5 0" type="matrix" in="shadowInnerInner1"></feColorMatrix>
        </filter>
        <path d="M0,56.0360252 C246.852338,-18.6786751 566.852338,-18.6786751 960,56.0360252 C1353.14766,130.750725 1673.14766,130.750725 1920,56.0360252 L1920,1136.94829 C1630.77246,1068.87935 1310.77246,1068.87935 960,1136.94829 C609.227535,1205.01724 289.227535,1205.01724 0,1136.94829 L0,56.0360252 Z" id="path-5"></path>
        <filter x="-0.1%" y="-0.2%" width="100.2%" height="100.3%" filterUnits="objectBoundingBox" id="filter-6">
            <feGaussianBlur stdDeviation="1.5" in="SourceAlpha" result="shadowBlurInner1"></feGaussianBlur>
            <feOffset dx="0" dy="1" in="shadowBlurInner1" result="shadowOffsetInner1"></feOffset>
            <feComposite in="shadowOffsetInner1" in2="SourceAlpha" operator="arithmetic" k2="-1" k3="1" result="shadowInnerInner1"></feComposite>
            <feColorMatrix values="0 0 0 0 1   0 0 0 0 1   0 0 0 0 1  0 0 0 0.5 0" type="matrix" in="shadowInnerInner1"></feColorMatrix>
        </filter>
        <linearGradient x1="93.0643946%" y1="49.5347224%" x2="36.0016113%" y2="50.4652776%" id="linearGradient-7">
            <stop stop-color="#F7931A" offset="0%"></stop>
            <stop stop-color="#8A381A" stop-opacity="0" offset="100%"></stop>
        </linearGradient>
        <linearGradient x1="93.0643946%" y1="49.5347224%" x2="23.2863484%" y2="50.4652776%" id="linearGradient-8">
            <stop stop-color="#2584F7" offset="0%"></stop>
            <stop stop-color="#2584F7" stop-opacity="0" offset="100%"></stop>
        </linearGradient>
        <linearGradient x1="100%" y1="26.6108344%" x2="9.43594989%" y2="77.5120497%" id="linearGradient-9">
            <stop stop-color="#757575" offset="0%"></stop>
            <stop stop-color="#000000" stop-opacity="0" offset="100%"></stop>
        </linearGradient>
        <linearGradient x1="50%" y1="0%" x2="50%" y2="100%" id="linearGradient-10">
            <stop stop-color="#737373" offset="0%"></stop>
            <stop stop-color="#18171C" offset="100%"></stop>
        </linearGradient>
        <linearGradient x1="50%" y1="-18.5093164%" x2="50%" y2="132.510201%" id="linearGradient-11">
            <stop stop-color="#757575" offset="0%"></stop>
            <stop stop-color="#000000" stop-opacity="0" offset="100%"></stop>
        </linearGradient>
    </defs>
    <g id="页面-1" stroke="none" stroke-width="1" fill="none" fill-rule="evenodd">
        <g id="Apple-TV备份-43" transform="translate(0.000000, -2105.000000)">
            <g id="编组-35-+-矩形-+-路径-27-+-路径-27备份-+-编组-蒙版" transform="translate(0.000000, 2105.000000)">
                <mask id="mask-2" fill="white">
                    <use xlink:href="#path-1"></use>
                </mask>
                <use id="蒙版" fill="#D8D8D8" opacity="0" xlink:href="#path-1"></use>
                <g id="编组-35" mask="url(#mask-2)">
                    <g transform="translate(-76.500000, 0.000000)">
                        <g id="编组-27" stroke-width="1" fill="none" fill-rule="evenodd" transform="translate(76.500000, 0.000000)">
                            <g id="矩形" opacity="0.5">
                                <use fill="#000000" fill-rule="evenodd" xlink:href="#path-3"></use>
                                <use fill="black" fill-opacity="1" filter="url(#filter-4)" xlink:href="#path-3"></use>
                            </g>
                            <g id="矩形" opacity="0.300000012" transform="translate(960.000000, 594.000000) scale(-1, 1) translate(-960.000000, -594.000000) ">
                                <use fill="#000000" fill-rule="evenodd" xlink:href="#path-5"></use>
                                <use fill="black" fill-opacity="1" filter="url(#filter-6)" xlink:href="#path-5"></use>
                            </g>
                        </g>
                        <g id="编组-29" stroke-width="1" fill="none" fill-rule="evenodd" transform="translate(1461.000000, 697.022295)">
                            <g id="编组-26" transform="translate(341.238853, 156.977705) rotate(-180.000000) translate(-341.238853, -156.977705) ">
                                <path d="M485.862485,65.9777053 C490.28076,65.9730869 493.870855,69.5510594 493.870855,73.969335 C493.870855,78.3042469 490.431243,81.837481 486.128401,81.9736335 L485.879225,81.9777053 L8.00837055,82.4777053 C3.59009497,82.4823239 0,78.9043515 0,74.4860759 C0,70.151164 3.43961163,66.6179298 7.74245443,66.4817773 L7.99162964,66.4777053 L485.862485,65.9777053 Z M525.862485,30.9777053 C530.28076,30.9730869 533.870855,34.5510594 533.870855,38.969335 C533.870855,43.3042469 530.431243,46.837481 526.128401,46.9736335 L525.879225,46.9777053 L48.0083706,47.4777053 C43.590095,47.4823239 40,43.9043515 40,39.4860759 C40,35.151164 43.4396116,31.6179298 47.7424544,31.4817773 L47.9916296,31.4777053 L525.862485,30.9777053 Z" id="形状结合备份" fill="url(#linearGradient-7)" fill-rule="nonzero"></path>
                                <rect id="矩形备份-3" fill="#070709" transform="translate(525.500000, 156.977705) rotate(-315.000000) translate(-525.500000, -156.977705) " x="414.5" y="45.9777054" width="222" height="222"></rect>
                            </g>
                        </g>
                        <path d="M485.862485,291 C490.28076,290.995382 493.870855,294.573354 493.870855,298.99163 C493.870855,303.326541 490.431243,306.859776 486.128401,306.995928 L485.879225,307 L8.00837055,307.5 C3.59009497,307.504618 0,303.926646 0,299.50837 C0,295.173459 3.43961163,291.640224 7.74245443,291.504072 L7.99162964,291.5 L485.862485,291 Z M525.862485,256 C530.28076,255.995382 533.870855,259.573354 533.870855,263.99163 C533.870855,268.326541 530.431243,271.859776 526.128401,271.995928 L525.879225,272 L48.0083706,272.5 C43.590095,272.504618 40,268.926646 40,264.50837 C40,260.173459 43.4396116,256.640224 47.7424544,256.504072 L47.9916296,256.5 L525.862485,256 Z" id="形状结合" fill="url(#linearGradient-8)" fill-rule="nonzero"></path>
                        <g id="编组" stroke-width="1" fill="none" fill-rule="evenodd" transform="translate(1613.500000, 162.000000)"></g>
                    </g>
                </g>
                <rect id="矩形" fill="#070709" mask="url(#mask-2)" transform="translate(449.000000, 382.000000) rotate(-315.000000) translate(-449.000000, -382.000000) " x="338" y="271" width="222" height="222"></rect>
                <polyline id="路径-27" stroke="url(#linearGradient-9)" stroke-width="16" stroke-linecap="round" mask="url(#mask-2)" points="-16 224.649015 494.785714 224.649015 145.435427 573.999302"></polyline>
                <polyline id="路径-27备份" stroke="url(#linearGradient-9)" stroke-width="16" stroke-linecap="round" mask="url(#mask-2)" transform="translate(1750.392857, 835.324159) rotate(-180.000000) translate(-1750.392857, -835.324159) " points="1495 660.649015 2005.78571 660.649015 1656.43543 1009.9993"></polyline>
                <g id="编组" mask="url(#mask-2)">
                    <g transform="translate(1536.714561, 161.943744)">
                        <g id="编组-30">
                            <path d="M104.687817,86.0839232 C105.010464,86.0839232 105.341078,86.0958585 105.671692,86.1197292 C105.731442,86.1237077 105.795175,86.1316646 105.854924,86.135643 C105.92264,86.1396215 105.986373,86.1475784 106.054089,86.1555353 C106.237321,86.1754275 106.420553,86.1873629 106.599802,86.2112336 C106.906516,86.2549965 107.21323,86.3027379 107.519944,86.3624147 C107.603594,86.3823069 107.699193,86.4061776 107.782842,86.4260699 C107.846575,86.4380052 107.910308,86.4499406 107.970057,86.4658544 C108.10549,86.4937035 108.244905,86.5175742 108.380338,86.5533803 C108.663152,86.6289708 108.94995,86.7045614 109.244714,86.7960657 C109.431929,86.8477856 109.623128,86.9154192 109.814326,86.9790744 L109.814326,86.9790744 L109.937809,87.0188589 C109.985608,87.0347727 110.033408,87.0506865 110.081207,87.0666003 C110.364022,87.1620831 110.642853,87.2734797 110.925668,87.3848763 C111.208482,87.4962729 111.48333,87.6156264 111.766144,87.7389584 C111.82191,87.7628291 111.877677,87.7946567 111.925476,87.8145489 L111.925476,87.8145489 L112.064892,87.8782041 C112.24414,87.9617516 112.427372,88.0492775 112.614588,88.1368034 C112.901385,88.2800276 113.1842,88.4272303 113.470997,88.5823898 C113.694062,88.7017433 113.913144,88.8250753 114.140192,88.9523857 C114.207908,88.9921702 114.271641,89.0359331 114.343341,89.0757176 C114.638105,89.2507694 114.932869,89.4297997 115.227634,89.6167868 C115.526381,89.803774 115.821146,89.998718 116.11591,90.201619 C116.418641,90.4124768 116.721372,90.6233347 117.024103,90.8461279 C117.330817,91.0728995 117.637531,91.3036496 117.940262,91.5463351 C118.047811,91.6298826 118.155361,91.7213869 118.26291,91.8089128 L118.26291,91.8089128 L118.370459,91.8924603 C118.537758,92.0277276 118.705056,92.1629949 118.872355,92.3022406 C119.183053,92.5687968 119.49375,92.8353529 119.800464,93.1138444 C120.107179,93.3923359 120.413893,93.6748059 120.716624,93.9652327 C121.019355,94.2516811 121.310136,94.542108 121.600917,94.8365133 C121.788132,95.0274789 121.975347,95.2303799 122.162562,95.4213455 C122.190446,95.4531731 122.214345,95.4770438 122.238245,95.5088714 C122.309945,95.5844619 122.381644,95.656074 122.453343,95.7316646 C122.728191,96.0260699 123.003039,96.3244536 123.265937,96.6307943 C123.540785,96.9411134 123.811649,97.2554109 124.078531,97.5776654 C124.349395,97.9038983 124.616276,98.2380881 124.879174,98.5682995 C125.161989,98.9223815 125.432853,99.2844205 125.699735,99.6464594 L125.699735,99.6464594 L125.747534,99.7061362 C125.767451,99.7300069 125.791351,99.757856 125.811267,99.7857052 C126.26138,100.394408 126.69556,101.019025 127.121773,101.651598 C127.703336,102.5189 128.260998,103.410073 128.790777,104.313181 C128.798744,104.329095 128.80671,104.345009 128.814677,104.356944 C128.81866,104.360923 128.822643,104.36888 128.822643,104.36888 C129.141308,104.917906 129.452005,105.474889 129.750753,106.03585 C129.965851,106.437674 130.172983,106.843476 130.376131,107.245299 C130.563346,107.619273 130.742595,107.993248 130.921844,108.367222 C131.069226,108.68152 131.208641,108.999796 131.35204,109.318072 L131.35204,109.318072 L131.356023,109.330007 C131.36399,109.341942 131.367973,109.349899 131.371957,109.361834 C131.519339,109.696024 131.662738,110.030214 131.806137,110.364404 C131.945552,110.702572 132.080984,111.04074 132.212433,111.382887 C132.343882,111.721055 132.475331,112.059224 132.598814,112.40137 C132.726279,112.759431 132.849762,113.117491 132.973244,113.47953 C133.080793,113.801785 133.184359,114.124039 133.283942,114.446294 L133.283942,114.446294 L133.295892,114.4821 C133.303858,114.50597 133.311825,114.529841 133.315808,114.55769 C133.435307,114.927686 133.542856,115.30166 133.646422,115.667678 C133.746005,116.037674 133.845587,116.40767 133.937203,116.777665 C134.024836,117.143683 134.112468,117.5097 134.192134,117.875718 C134.271801,118.241735 134.3435,118.603774 134.415199,118.961834 C134.455032,119.168714 134.482916,119.375593 134.518765,119.582473 L134.518765,119.582473 L134.538682,119.685912 C134.558598,119.797309 134.578515,119.916662 134.598431,120.028059 C134.654198,120.378163 134.701997,120.728266 134.749797,121.07837 C134.793613,121.420517 134.825479,121.766642 134.861329,122.10481 C134.897179,122.442978 134.921079,122.785125 134.944979,123.123293 C134.968878,123.461461 134.980828,123.79963 134.988795,124.13382 C134.996761,124.320807 134.996761,124.507794 135.000745,124.694781 L135.000745,124.694781 L134.893196,163.134566 L146.285439,169.702987 L140.668984,172.965316 L129.280723,166.392916 L129.388272,127.953132 C129.368356,126.317989 129.209024,124.639083 128.922226,122.940285 C128.918243,122.908457 128.914259,122.876629 128.906293,122.844802 C128.619495,121.149982 128.205232,119.443227 127.675452,117.74045 C127.675452,117.728515 127.675452,117.71658 127.671469,117.708623 C127.137707,115.985954 126.492412,114.27522 125.739568,112.588357 L125.739568,112.588357 L125.739568,112.576422 C124.990707,110.885581 124.13828,109.222589 123.198221,107.615295 C123.190254,107.599381 123.182288,107.587446 123.174321,107.57551 C122.238245,105.980152 121.222503,104.436513 120.131078,102.964487 C120.119129,102.944595 120.103195,102.924702 120.087262,102.90481 C119.003804,101.444719 117.844663,100.060218 116.625773,98.7632435 C116.59789,98.7353944 116.57399,98.7115237 116.55009,98.6836745 C115.339166,97.406592 114.064509,96.2210139 112.75002,95.1508109 C112.718153,95.1229617 112.686287,95.0951126 112.650437,95.0712419 C111.316031,93.9891034 109.937809,93.030297 108.523736,92.2147147 C107.822675,91.8089128 107.129581,91.4548307 106.448436,91.1365547 C106.40462,91.1166625 106.360803,91.0967702 106.313004,91.076878 C105.639826,90.7705373 104.974614,90.5039812 104.325336,90.281188 C104.28152,90.2652742 104.241687,90.2533388 104.19787,90.237425 C103.572492,90.0265672 102.959064,89.8594723 102.353602,89.724205 C102.289869,89.7082912 102.230119,89.6963558 102.17037,89.680442 C101.584824,89.5571101 101.003262,89.4695842 100.441617,89.4178643 C100.373901,89.4099074 100.306184,89.4019505 100.242452,89.3979721 C99.7007225,89.3502307 99.1709433,89.3462522 98.6531141,89.362166 C98.5415816,89.3701229 98.4340324,89.3741014 98.3225,89.3780798 C97.7887375,89.4178643 97.266925,89.4735626 96.7610456,89.5770023 C96.6654464,89.5968946 96.5857803,89.6247437 96.4941644,89.6486144 C96.0599845,89.7480757 95.6377544,89.8674292 95.2274743,90.0146318 C94.6658288,90.2175328 94.1320663,90.4602182 93.6222036,90.758602 L93.6222036,90.758602 L99.2346761,87.4962729 C99.7445388,87.2018676 100.282285,86.9631606 100.839947,86.7562812 L100.839947,86.7562812 L100.931563,86.7125183 C101.31396,86.577251 101.720257,86.4777897 102.126553,86.3862854 C102.210203,86.3663931 102.285885,86.3345655 102.373518,86.3146733 L102.373518,86.3146733 L102.393435,86.3106948 C102.787782,86.2311258 103.190095,86.1754275 103.604358,86.135643 C103.711908,86.1276861 103.827423,86.1316646 103.938956,86.1237077 C104.050488,86.1157508 104.158037,86.1117723 104.26957,86.1077939 C104.408985,86.099837 104.544418,86.0879016 104.687817,86.0839232 Z M111.035607,149.382655 L122.431834,155.951076 L116.815378,159.209427 L105.423134,152.637027 L111.035607,149.382655 Z M108.07203,102.696737 C107.558184,102.995121 107.135954,103.452643 106.765507,103.977798 C106.606175,104.20457 106.43091,104.415428 106.303444,104.681984 L106.303444,104.681984 L106.295477,104.693919 C106.084362,105.131549 105.921047,105.620898 105.805531,106.161967 L105.805531,106.161967 L105.793581,106.20573 C105.678065,106.746799 105.614333,107.33561 105.602383,107.97614 L105.602383,107.97614 L105.5028,142.067479 L105.5028,142.127156 C105.5028,142.473281 105.498817,142.811449 105.482884,143.14166 C105.46695,143.479829 105.447034,143.81004 105.419151,144.132294 C105.411184,144.215842 105.403218,144.291432 105.395251,144.37498 C105.387284,144.442614 105.379318,144.510247 105.371351,144.573902 C105.355418,144.764868 105.335501,144.959812 105.315585,145.146799 C105.271769,145.488946 105.219986,145.823136 105.16422,146.149369 C105.144303,146.280658 105.112437,146.403989 105.088537,146.535278 C105.06862,146.618826 105.052687,146.702373 105.036754,146.785921 L105.036754,146.785921 L104.961071,147.179787 C104.873438,147.541826 104.781823,147.903865 104.678257,148.24999 C104.650374,148.349452 104.614524,148.436977 104.582657,148.53246 C104.550791,148.639878 104.514941,148.73934 104.483075,148.842779 C104.423325,149.017831 104.371542,149.188905 104.311793,149.355999 C104.180344,149.698146 104.036945,150.024379 103.893546,150.346633 C103.869646,150.398353 103.845747,150.454052 103.82583,150.50975 C103.817863,150.521685 103.81388,150.537599 103.805914,150.553513 C103.562932,151.062754 103.296051,151.540169 103.009253,151.993712 C103.00527,152.005647 102.99332,152.009626 102.989337,152.021561 C102.555157,152.693919 102.057244,153.286708 101.527465,153.827777 C101.399999,153.959066 101.26855,154.082398 101.137101,154.20573 C100.579439,154.714972 99.9978768,155.184429 99.3605485,155.558403 L99.3605485,155.558403 L93.7401094,158.816754 C94.381421,158.446758 94.9629831,157.973322 95.5206454,157.468059 C95.6560776,157.340749 95.7875266,157.213438 95.911009,157.082149 C96.4407881,156.54108 96.9387009,155.956248 97.3688975,155.28389 C97.679595,154.810454 97.9584262,154.305191 98.2093742,153.764122 C98.233274,153.712402 98.2531905,153.660682 98.2770903,153.608963 C98.496172,153.131549 98.6913538,152.626285 98.866619,152.10113 C98.8984855,152.001669 98.9383185,151.898229 98.9701849,151.794789 C99.1454502,151.233828 99.2968157,150.652974 99.420298,150.040293 C99.4402145,149.960724 99.4561477,149.877176 99.4720809,149.793629 C99.59158,149.165034 99.6951459,148.512568 99.7588787,147.832253 C99.7668453,147.764619 99.7748119,147.700964 99.7787952,147.633331 C99.8504946,146.893339 99.8863444,146.125498 99.8903277,145.32583 L99.8903277,145.32583 L99.9899102,111.234491 C99.9899102,111.142987 99.9938935,111.055461 99.9978768,110.963956 C100.00186,110.824711 100.009827,110.693422 100.021777,110.562133 C100.029743,110.418909 100.041693,110.283641 100.06161,110.152353 C100.081526,110.017085 100.097459,109.881818 100.121359,109.750529 C100.141276,109.651068 100.161192,109.559563 100.181109,109.464081 C100.185092,109.448167 100.185092,109.432253 100.189075,109.420318 C100.193059,109.392469 100.197042,109.356662 100.205009,109.324835 C100.240858,109.181611 100.276708,109.038386 100.320524,108.899141 C100.360357,108.743981 100.41214,108.596779 100.463923,108.457533 C100.527656,108.282481 100.599355,108.119365 100.675038,107.960227 C100.675038,107.956248 100.679021,107.956248 100.683005,107.95227 L100.683005,107.95227 L100.686988,107.940334 C100.778604,107.749369 100.874203,107.570338 100.985736,107.399265 C101.029552,107.327653 101.101251,107.303782 101.149051,107.240127 C101.519498,106.714972 101.941728,106.253471 102.459557,105.955088 L102.459557,105.955088 Z M69.5829761,63.054665 L87.1732377,93.5176571 L81.5567819,96.7799862 L76.0120255,87.1720293 L75.900493,124.999132 C75.900493,125.675469 75.9562593,126.371698 76.0677917,127.075883 C76.0677917,127.079862 76.071775,127.079862 76.071775,127.079862 C76.1833075,127.780069 76.3506062,128.492212 76.5617212,129.196397 C76.5617212,129.204354 76.5657045,129.21629 76.5696878,129.224246 C76.7808028,129.932411 77.047684,130.632618 77.3464317,131.324868 L77.3464317,131.324868 L77.3583816,131.348739 C77.6531459,132.029054 77.9957099,132.693455 78.366157,133.337964 C78.3820902,133.369791 78.3980234,133.405597 78.4139566,133.437425 C78.7963536,134.089891 79.2066337,134.726443 79.6567468,135.327189 L79.6567468,135.327189 C80.1108433,135.947827 80.5928228,136.524702 81.0987021,137.065771 C81.1106521,137.073728 81.1186187,137.085664 81.1305686,137.097599 C81.6284813,137.622754 82.1542772,138.116082 82.6960063,138.561669 C82.7079562,138.573604 82.7238894,138.585539 82.7398226,138.597475 C83.2895182,139.039083 83.8591304,139.436928 84.4446758,139.775096 C85.0302212,140.113264 85.6078,140.375842 86.1654623,140.566808 C86.1734289,140.570786 86.1813955,140.574764 86.1933454,140.578743 C86.7390578,140.761752 87.2688369,140.873148 87.7747163,140.916911 C87.7866662,140.92089 87.7986161,140.92089 87.810566,140.92089 C88.3164454,140.960674 88.7984249,140.932825 89.248538,140.845299 C89.2604879,140.841321 89.2684545,140.837342 89.2804045,140.837342 C89.7265343,140.741859 90.1527476,140.5867 90.5351446,140.359928 L90.5351446,140.359928 L84.9186888,143.618279 C84.6916406,143.749568 84.4526424,143.864943 84.1977111,143.94849 C84.0264291,144.012145 83.8471805,144.059887 83.6639486,144.095693 C83.6519987,144.095693 83.6440321,144.099671 83.6320822,144.10365 C83.6280989,144.10365 83.6201323,144.107628 83.6121657,144.107628 C83.4488503,144.143434 83.2855349,144.167305 83.114253,144.183219 C82.9748374,144.195154 82.8274552,144.199132 82.680073,144.203111 C82.5446408,144.203111 82.4131918,144.199132 82.2777595,144.187197 C82.2498764,144.187197 82.2219933,144.183219 82.1941102,144.17924 L82.1941102,144.17924 L82.1582605,144.175262 C82.0666445,144.167305 81.9829952,144.159348 81.8913792,144.147413 C81.7678969,144.131499 81.6483978,144.111607 81.5249155,144.087736 C81.4054164,144.067844 81.2859173,144.039994 81.1704016,144.008167 C81.0509025,143.980318 80.9353868,143.94849 80.8158877,143.912684 C80.7362217,143.888813 80.6565556,143.860964 80.5768896,143.833115 C80.568923,143.833115 80.5569731,143.829137 80.5490065,143.825158 L80.5490065,143.825158 L80.477307,143.801287 C80.3617913,143.757524 80.2462755,143.71774 80.1307598,143.669999 C80.0192273,143.626236 79.9037116,143.578494 79.7921791,143.526774 L79.7921791,143.526774 L79.4456318,143.367636 C79.3340994,143.30796 79.2146003,143.248283 79.0990845,143.184628 C79.0114519,143.136886 78.919836,143.085166 78.82822,143.033447 C78.8043202,143.017533 78.7724538,143.001619 78.7445707,142.985705 C78.6250716,142.918072 78.5055725,142.838503 78.3820902,142.762912 C78.2586078,142.687321 78.1430921,142.603774 78.0196097,142.524205 C77.892144,142.436679 77.7686617,142.349153 77.6491626,142.257649 C77.521697,142.166144 77.3942313,142.07464 77.2707489,141.975179 C77.2229493,141.935394 77.1751497,141.89561 77.1273501,141.855825 C77.1114168,141.84389 77.0954836,141.827976 77.0795504,141.816041 C77.0198009,141.764321 76.9520848,141.71658 76.8883519,141.66486 C76.7648696,141.557442 76.6374039,141.442067 76.5099382,141.33067 C76.3864559,141.219273 76.2589902,141.09992 76.1355079,140.980566 C76.0120255,140.865191 75.8925264,140.749816 75.7730274,140.622506 C75.6853947,140.538958 75.5977621,140.443476 75.5141127,140.35595 L75.5141127,140.35595 L75.4862296,140.320144 L75.4862296,140.320144 L75.4224968,140.260467 L75.4224968,140.260467 L75.0878994,139.890471 C74.976367,139.763161 74.8688178,139.631872 74.7572854,139.500583 C74.6457529,139.369294 74.5382038,139.234027 74.4266713,139.098759 C74.2992056,138.931665 74.17174,138.768548 74.0482576,138.597475 L74.0482576,138.597475 C74.0442743,138.593496 74.0442743,138.589518 74.0442743,138.589518 C73.8570591,138.334897 73.6778105,138.080276 73.5025452,137.817699 C73.2794803,137.487487 73.0683653,137.149319 72.8692002,136.807172 C72.8453004,136.771366 72.8253839,136.731582 72.8014841,136.691797 C72.7815676,136.65997 72.7656344,136.628142 72.7497012,136.600293 C72.6461353,136.421263 72.5425695,136.238254 72.4429869,136.055245 C72.3553543,135.884172 72.259755,135.713098 72.1761057,135.542025 C72.1004229,135.390844 72.0287235,135.239663 71.9570241,135.088482 C71.8972745,134.953215 71.8335417,134.80999 71.7698089,134.674723 C71.757859,134.650852 71.7459091,134.63096 71.7379425,134.607089 C71.7379425,134.603111 71.7379425,134.595154 71.7339592,134.591176 C71.6861595,134.479779 71.6383599,134.376339 71.5905603,134.268921 C71.5387774,134.129675 71.4830111,133.986451 71.4272449,133.851184 C71.375462,133.711938 71.3196957,133.572692 71.2679128,133.433447 C71.2201132,133.286244 71.164347,133.139041 71.1165473,132.991839 L71.1165473,132.991839 L70.9731485,132.550231 C70.9691652,132.530338 70.9611986,132.506468 70.953232,132.482597 C70.953232,132.47464 70.9492487,132.466683 70.9452654,132.458726 C70.9094156,132.335394 70.8775492,132.216041 70.8416995,132.100666 C70.7978832,131.949485 70.7580502,131.798304 70.7222004,131.643144 C70.6863507,131.491963 70.650501,131.34476 70.6186346,131.197558 C70.5827849,131.046377 70.5588851,130.899174 70.5270186,130.751971 L70.5270186,130.751971 L70.4553192,130.342191 L70.4553192,130.330256 L70.4553192,130.330256 L70.4513359,130.31832 C70.4274361,130.175096 70.4115029,130.031872 70.3955697,129.888648 C70.3756532,129.749402 70.35972,129.610156 70.3477701,129.47091 L70.3268577,129.262042 L70.3268577,129.262042 L70.3119203,129.053173 C70.2999704,128.917906 70.2959871,128.77866 70.2920038,128.643393 C70.2880205,128.512104 70.2840372,128.384793 70.2840372,128.257483 L70.2840372,128.257483 L70.3955697,90.342854 L75.9721925,87.1043956 L63.9665203,66.316994 L69.5829761,63.054665 Z" id="形状结合" fill="#B8B8B8"></path>
                            <path d="M129.279926,166.394508 L140.668187,172.962929 L122.990293,183.056256 L105.423931,152.641006 L116.816175,159.209427 L116.923724,121.179423 C116.939657,115.804537 113.163487,109.244072 108.483107,106.546683 C103.85451,103.877143 100.07834,105.969808 99.9867236,111.237276 L99.8911243,145.324636 C99.8512913,158.668357 90.3829824,164.0512 78.7875903,157.363426 C67.2917808,150.735328 57.9668708,134.745937 57.8274552,121.477806 L57.9350044,83.1533969 L46.283846,76.4417516 L63.9697069,66.3165962 L81.5599685,96.7795883 L70.394773,90.3424561 L70.2872239,128.257085 C70.275274,133.683691 74.0992439,140.303832 78.8314067,143.033049 C83.3325379,145.630977 87.052942,143.745191 87.3994893,138.855676 L87.4034726,138.12762 L87.4990718,104.207355 C87.5389048,90.8994391 96.9514474,85.5404669 108.52294,92.2123276 C119.966966,98.8165547 129.244077,114.750247 129.387476,127.954723 L129.279926,166.394508 Z" id="Fill-9" fill="url(#linearGradient-10)"></path>
                            <path d="M96.0825163,13.0979625 C148.890516,43.5859625 191.712516,117.756962 191.541033,178.436962 C191.368516,239.116962 148.266516,263.679962 95.4585163,233.191962 C42.6505163,202.701962 -0.171483664,128.531962 0,67.8519625 C0.172516336,7.17196248 43.2745163,-17.3910375 96.0825163,13.0979625" id="Fill-3" stroke="url(#linearGradient-11)" stroke-width="2" stroke-linecap="round"></path>
                        </g>
                        <g transform="translate(46.283846, 66.316596)"></g>
                    </g>
                </g>
            </g>
        </g>
    </g>
</svg>